<?xml version="1.0" standalone="no"?>
<!DOCTYPE svg PUBLIC "-//W3C//DTD SVG 20010904//EN"
 "http://www.w3.org/TR/2001/REC-SVG-20010904/DTD/svg10.dtd">
<svg version="1.0" xmlns="http://www.w3.org/2000/svg"
 width="700.000000pt" height="700.000000pt" viewBox="0 0 700.000000 700.000000"
 preserveAspectRatio="xMidYMid meet">
<metadata>
Created by potrace 1.11, written by Peter Selinger 2001-2013
</metadata>
<g transform="translate(0.000000,700.000000) scale(0.100000,-0.100000)"
fill="#000000" stroke="none">
<path d="M3298 6995 c-2 -1 -41 -5 -88 -9 -198 -13 -423 -53 -636 -111 -99
-27 -325 -104 -391 -132 -21 -9 -40 -17 -43 -18 -41 -12 -265 -123 -360 -178
-47 -28 -94 -55 -105 -61 -215 -119 -540 -389 -760 -629 -88 -96 -97 -106
-172 -202 -335 -427 -584 -974 -679 -1490 -9 -49 -17 -97 -19 -105 -2 -9 -6
-43 -10 -75 -4 -33 -9 -69 -11 -80 -19 -101 -26 -569 -11 -715 9 -81 25 -207
33 -255 3 -16 7 -43 9 -59 3 -15 7 -35 9 -45 3 -9 8 -31 11 -49 20 -120 112
-426 174 -581 51 -127 140 -312 198 -409 24 -41 43 -76 43 -78 0 -3 42 -69 94
-147 444 -668 1088 -1154 1856 -1402 176 -57 446 -117 585 -131 33 -3 63 -8
66 -10 15 -9 235 -19 419 -19 186 0 325 7 420 21 131 19 294 48 345 61 33 8
67 16 75 18 100 20 358 107 513 172 122 51 339 160 395 198 20 14 40 25 43 25
26 0 409 279 509 370 438 401 723 803 935 1320 102 249 198 610 221 831 3 35
8 67 10 70 9 16 19 214 19 399 0 188 -7 330 -20 420 -3 19 -7 56 -10 81 -3 25
-7 54 -9 65 -2 10 -11 60 -21 109 -124 665 -463 1307 -947 1794 -73 74 -215
203 -281 256 -21 17 -48 38 -60 49 -12 10 -57 44 -100 75 -392 281 -857 487
-1325 586 -98 20 -246 43 -392 60 -56 7 -526 16 -532 10z"/>
</g>
</svg>
